#!OML:ASF E:\Style4\Style4.ASF
:FULLY-SPECIFIED
:DEGREES
1386
root -0.50311 17.5383 -0.875471 1.8467 0.197095 3.7254
lowerback 9.02266 1.77886 -0.696321
upperback 3.85749 2.28746 -0.791043
thorax -1.05386 1.14126 -0.647081
lowerneck -1.08625 -4.43539 -4.42124
upperneck 14.5089 -6.09344 2.87298
head 4.7535 -3.052 1.33476
rclavicle -4.17448e-015 -3.97569e-016
rhumerus 61.1627 -26.5173 -17.4915
rradius 59.2102
rwrist -26.0092
rhand 9.39495 6.97429
rfingers 7.12502
rthumb 34.5522 -19.6852
lclavicle -4.17448e-015 -3.97569e-016
lhumerus 62.0758 30.7067 19.6733
lradius 71.7078
lwrist 24.0991
lhand 11.3019 28.0578
lfingers 7.12502
lthumb 36.3601 54.285
rfemur -20.717 -4.44461 17.2759
rtibia 41.4998
rfoot -20.9198 -16.43
rtoes -10.9886
lfemur -17.9208 1.31772 -19.9925
ltibia 35.8053
lfoot -18.8162 8.69213
ltoes -19.8387
1387
root -0.509696 17.5188 -0.896892 1.76163 0.34002 3.66146
lowerback 9.18036 1.76103 -0.673195
upperback 4.06676 2.26669 -0.73368
thorax -0.925543 1.13073 -0.599958
lowerneck -1.02791 -4.46597 -4.33167
upperneck 14.0636 -6.1212 2.79166
head 4.60296 -3.06637 1.29942
rclavicle -3.56818e-014 1.15295e-014
rhumerus 61.4029 -26.8672 -17.6815
rradius 59.1159
rwrist -25.8428
rhand 9.21581 7.07316
rfingers 7.12502
rthumb 34.3822 -19.6249
lclavicle -3.56818e-014 1.15295e-014
lhumerus 62.5795 31.0341 20.3354
lradius 71.6578
lwrist 23.882
lhand 11.3603 27.6115
lfingers 7.12502
lthumb 36.4154 53.8248
rfemur -20.9082 -4.64417 17.3914
rtibia 41.9328
rfoot -21.2141 -16.3983
rtoes -10.3969
lfemur -18.2262 1.34933 -19.8921
ltibia 36.3313
lfoot -18.9538 8.52188
ltoes -19.8468
1388
root -0.516506 17.4979 -0.918245 1.73522 0.515813 3.72472
lowerback 9.29688 1.74691 -0.780958
upperback 4.23432 2.23942 -0.718653
thorax -0.820803 1.1158 -0.521968
lowerneck -0.908052 -4.48629 -4.29842
upperneck 13.6287 -6.15033 2.83322
head 4.45104 -3.07843 1.31245
rclavicle 1.91827e-014 5.1684e-015
rhumerus 61.5397 -27.1322 -17.8448
rradius 59.0596
rwrist -25.7262
rhand 9.07962 7.14752
rfingers 7.12502
rthumb 34.2529 -19.5797
lclavicle 1.91827e-014 5.1684e-015
lhumerus 63.1213 31.1909 21.017
lradius 71.5989
lwrist 23.6732
lhand 11.3983 27.449
lfingers 7.12502
lthumb 36.4514 53.6534
rfemur -21.1792 -4.88312 17.3703
rtibia 42.4119
rfoot -21.5293 -16.3663
rtoes -9.75
lfemur -18.5864 1.32915 -19.9334
ltibia 36.8453
lfoot -19.0007 8.33959
ltoes -19.7186
1389
root -0.521536 17.4742 -0.938687 1.66044 0.672414 3.82391
lowerback 9.48233 1.74439 -0.898118
upperback 4.38898 2.22514 -0.719086
thorax -0.766582 1.10718 -0.458467
lowerneck -0.835378 -4.50557 -4.34437
upperneck 12.9358 -6.15557 2.80325
head 4.70681 -3.09754 1.44913
rclavicle 3.95581e-014 -1.11319e-014
rhumerus 61.6624 -27.3033 -18.0647
rradius 58.9885
rwrist -25.5948
rhand 9.14945 7.22125
rfingers 7.12502
rthumb 34.3192 -19.4911
lclavicle 3.95581e-014 -1.11319e-014
lhumerus 63.5346 31.2447 21.4669
lradius 71.5412
lwrist 23.7822
lhand 10.9119 27.5436
lfingers 7.12502
lthumb 35.9907 53.8624
rfemur -21.4197 -5.06488 17.2767
rtibia 42.8962
rfoot -21.5198 -16.6117
rtoes -11.3012
lfemur -18.8876 1.33398 -20.0199
ltibia 37.3816
lfoot -19.1071 8.09866
ltoes -19.4647
1390
root -0.524842 17.4527 -0.958853 1.52254 0.813714 3.75951
lowerback 9.69183 1.72451 -0.845868
upperback 4.55149 2.20261 -0.66958
thorax -0.712895 1.09603 -0.43811
lowerneck -0.744391 -4.52541 -4.39466
upperneck 12.6762 -6.18662 2.88195
head 4.60029 -3.11218 1.48674
rclavicle -4.57205e-015 1.98785e-014
rhumerus 61.8115 -27.3415 -18.2618
rradius 58.8773
rwrist -25.4176
rhand 9.06078 7.18598
rfingers 7.12502
rthumb 34.235 -19.5453
lclavicle -4.57205e-015 1.98785e-014
lhumerus 63.8216 31.1335 21.9042
lradius 71.5205
lwrist 23.8096
lhand 10.2797 27.5541
lfingers 7.12502
lthumb 35.3916 54.0178
rfemur -21.5898 -5.25921 17.3504
rtibia 43.3582
rfoot -21.3835 -16.9359
rtoes -13.7415
lfemur -19.1417 1.36233 -19.933
ltibia 37.9427
lfoot -19.2908 7.93419
ltoes -19.5871
1391
root -0.52945 17.4291 -0.98143 1.43395 0.963064 3.56865
lowerback 9.83813 1.69279 -0.730231
upperback 4.67663 2.17142 -0.569515
thorax -0.662918 1.081 -0.398841
lowerneck -0.481194 -4.55914 -4.3534
upperneck 12.3342 -6.23725 2.89132
head 4.42359 -3.13677 1.48747
rclavicle -6.36111e-015 -1.98785e-015
rhumerus 61.9461 -27.2748 -18.4054
rradius 58.7482
rwrist -25.2009
rhand 9.0398 7.24686
rfingers 7.12502
rthumb 34.2151 -19.4889
lclavicle -6.36111e-015 -1.98785e-015
lhumerus 64.1491 30.87 22.484
lradius 71.4116
lwrist 23.3106
lhand 10.5756 27.3548
lfingers 7.12502
lthumb 35.6721 53.7512
rfemur -21.8072 -5.41941 17.5897
rtibia 43.7924
rfoot -21.4817 -16.9571
rtoes -13.7904
lfemur -19.49 1.41078 -19.6935
ltibia 38.5305
lfoot -19.4317 7.73758
ltoes -19.5132
1392
root -0.535527 17.4052 -1.0042 1.38372 1.11319 3.47569
lowerback 9.94179 1.67244 -0.743764
upperback 4.80879 2.14458 -0.479768
thorax -0.586478 1.06638 -0.29673
lowerneck -0.247262 -4.6179 -4.32456
upperneck 11.9536 -6.31382 2.85417
head 4.23964 -3.17644 1.47333
rclavicle -1.42131e-014 1.39149e-014
rhumerus 62.0627 -27.1836 -18.5515
rradius 58.6086
rwrist -25.0581
rhand 8.99313 7.33268
rfingers 7.12502
rthumb 34.1707 -19.413
lclavicle -1.42131e-014 1.39149e-014
lhumerus 64.4757 30.6114 22.9836
lradius 71.2572
lwrist 22.8844
lhand 10.8003 27.279
lfingers 7.12502
lthumb 35.885 53.6236
rfemur -22.0701 -5.58082 17.7305
rtibia 44.2388
rfoot -21.7504 -16.7973
rtoes -12.6667
lfemur -19.8745 1.45752 -19.5612
ltibia 39.1096
lfoot -19.5172 7.52863
ltoes -19.5328
1393
root -0.538683 17.3817 -1.02311 1.29322 1.23121 3.5055
lowerback 10.0948 1.65915 -0.819412
upperback 4.93263 2.11987 -0.453082
thorax -0.545108 1.0525 -0.226718
lowerneck -0.102753 -4.65928 -4.34782
upperneck 11.6502 -6.37296 2.90575
head 4.10818 -3.20557 1.49718
rclavicle 2.50469e-014 4.77083e-015
rhumerus 61.9906 -27.0008 -18.6691
rradius 58.5458
rwrist -24.9918
rhand 8.99427 7.25639
rfingers 7.12502
rthumb 34.1718 -19.4891
lclavicle 2.50469e-014 4.77083e-015
lhumerus 64.6313 30.2827 23.1755
lradius 71.1849
lwrist 22.8919
lhand 10.6795 27.4308
lfingers 7.12502
lthumb 35.7705 53.8033
rfemur -22.284 -5.74309 17.6956
rtibia 44.6937
rfoot -21.8643 -16.7716
rtoes -12.5574
lfemur -20.1511 1.52053 -19.5817
ltibia 39.6515
lfoot -19.6958 7.2927
ltoes -19.2842
1394
root -0.54075 17.3585 -1.043 1.19193 1.3126 3.50242
lowerback 10.2954 1.65133 -0.832046
upperback 5.01789 2.1066 -0.440605
thorax -0.566792 1.04552 -0.209992
lowerneck -0.0581053 -4.68593 -4.38355
upperneck 11.4771 -6.4179 3.0256
head 4.04672 -3.22487 1.54399
rclavicle 1.65985e-014 -5.1684e-015
rhumerus 61.6998 -26.7143 -18.6047
rradius 58.4972
rwrist -25.0336
rhand 8.83957 7.35428
rfingers 7.12502
rthumb 34.0249 -19.424
lclavicle 1.65985e-014 -5.1684e-015
lhumerus 64.6423 29.8114 23.1797
lradius 71.1091
lwrist 22.8608
lhand 10.7009 27.3155
lfingers 7.12502
lthumb 35.7908 53.6832
rfemur -22.5089 -5.88524 17.692
rtibia 45.175
rfoot -21.9928 -16.7482
rtoes -12.4432
lfemur -20.3888 1.56183 -19.5672
ltibia 40.1298
lfoot -19.8308 7.10061
ltoes -18.7013
1395
root -0.544585 17.3383 -1.06486 1.13077 1.37718 3.47177
lowerback 10.4317 1.66269 -0.824622
upperback 5.10036 2.12171 -0.407133
thorax -0.556381 1.05273 -0.183888
lowerneck 0.0200064 -4.71043 -4.4681
upperneck 11.2719 -6.45813 3.14326
head 3.96961 -3.24433 1.59979
rclavicle 2.64384e-014 4.37326e-015
rhumerus 61.4146 -26.4233 -18.3858
rradius 58.3557
rwrist -25.176
rhand 8.70705 7.48037
rfingers 7.12502
rthumb 33.899 -19.3258
lclavicle 2.64384e-014 4.37326e-015
lhumerus 64.6046 29.2457 23.1193
lradius 71.0257
lwrist 22.8286
lhand 10.4836 27.2044
lfingers 7.12502
lthumb 35.5848 53.6218
rfemur -22.7832 -5.98342 17.7439
rtibia 45.637
rfoot -21.9374 -16.9848
rtoes -13.8345
lfemur -20.6648 1.59303 -19.5124
ltibia 40.5762
lfoot -19.9125 6.8969
ltoes -18.1324
1396
root -0.548846 17.3158 -1.08572 1.03989 1.45373 3.56598
lowerback 10.5435 1.67971 -0.964111
upperback 5.22891 2.13141 -0.38388
thorax -0.489406 1.05476 -0.0838057
lowerneck -0.127441 -4.76667 -4.5529
upperneck 11.2071 -6.52464 3.15503
head 3.98266 -3.27874 1.61307
rclavicle 8.74653e-015 5.96354e-015
rhumerus 61.2415 -26.1414 -18.1441
rradius 58.1353
rwrist -25.3409
rhand 8.72564 7.48059
rfingers 7.12502
rthumb 33.9167 -19.3216
lclavicle 8.74653e-015 5.96354e-015
lhumerus 64.4745 28.6544 22.967
lradius 70.9306
lwrist 22.8226
lhand 10.1614 27.0806
lfingers 7.12502
lthumb 35.2794 53.5709
rfemur -22.9888 -6.13934 17.6462
rtibia 46.0852
rfoot -22.062 -16.9634
rtoes -14.1143
lfemur -20.8788 1.56279 -19.5888
ltibia 41.0263
lfoot -20.1 6.63444
ltoes -17.1789
1397
root -0.552348 17.2911 -1.10447 0.879727 1.55633 3.59573
lowerback 10.7375 1.66001 -1.0512
upperback 5.36657 2.09619 -0.350161
thorax -0.455735 1.035 0.000264178
lowerneck -0.507256 -4.80482 -4.56499
upperneck 11.2922 -6.56084 3.13468
head 4.08803 -3.29443 1.59782
rclavicle -2.31584e-014 1.31198e-014
rhumerus 61.128 -25.7668 -17.9946
rradius 57.9207
rwrist -25.4616
rhand 8.86057 7.44538
rfingers 7.12502
rthumb 34.0448 -19.3284
lclavicle -2.31584e-014 1.31198e-014
lhumerus 64.3088 28.0467 22.667
lradius 70.7285
lwrist 22.719
lhand 9.90992 26.9471
lfingers 7.12502
lthumb 35.0409 53.4936
rfemur -23.0754 -6.27911 17.6024
rtibia 46.4963
rfoot -23.1525 -16.09
rtoes -8.77176
lfemur -21.0404 1.61028 -19.6014
ltibia 41.4841
lfoot -20.2058 6.55207
ltoes -17.5157
1398
root -0.554121 17.268 -1.12295 0.728804 1.66558 3.50314
lowerback 10.9136 1.61066 -0.993723
upperback 5.48394 2.03568 -0.293913
thorax -0.42889 1.00488 0.0297071
lowerneck -0.779754 -4.80736 -4.57098
upperneck 11.2998 -6.55561 3.14992
head 4.14458 -3.28908 1.59814
rclavicle 6.06293e-015 -1.59028e-015
rhumerus 61.1875 -25.1536 -18.0908
rradius 57.583
rwrist -25.3201
rhand 8.87863 7.65827
rfingers 7.12502
rthumb 34.062 -19.1117
lclavicle 6.06293e-015 -1.59028e-015
lhumerus 64.033 27.374 22.2295
lradius 70.5733
lwrist 22.567
lhand 9.72894 26.8733
lfingers 7.12502
lthumb 34.8692 53.4598
rfemur -23.1635 -6.39047 17.6972
rtibia 46.8651
rfoot -24.1087 -15.308
rtoes -3.9137
lfemur -21.2407 1.68417 -19.4968
ltibia 41.9529
lfoot -20.2579 6.62226
ltoes -18.5711
